<?xml version="1.0" encoding="UTF-8"?>
<svg width="1200pt" height="1200pt" version="1.1" viewBox="0 0 1200 1200" xmlns="http://www.w3.org/2000/svg">
 <path d="m980.77 396.74c-0.61328-59.113-45.863-118.5-106.32-140.44l0.3125-1.5977-5.3047-1.5078c-39.742-11.363-83.508-6.0586-125.83-0.9375-26.281 3.1914-51.098 6.1797-74.566 5.3516-39.781-1.4414-69.781-1.6914-100.25-0.81641-25.129 0.76953-50.723-0.58984-76.645-1.9453-25.355-1.3203-51.59-2.6875-77.82-1.9805-32.867 0.91016-80.051 4.668-110.17 26.762-39.301 28.848-56.699 85.777-69.406 127.39-12.73 41.699-15.973 87.023-18.203 129.88-1.3438 25.559-1.2734 50.844 0.22656 75.156 0.42188 6.8867 0.26562 14.555 0.085937 23.52-0.39453 17.723-0.80469 36.035 4.2344 52.141 11.762 37.656 45.504 70.02 88.055 84.48 11.734 3.9844 26.449 7.3906 40.379 9.3594 15.121 2.1484 28.859-0.39453 42.215-2.8672l1.5469-0.28906c8.4727-1.5703 16.008-2.9531 24.793-2.9648 1.8594-0.085938 4.8828-0.046875 8.2305-0.12109 6.2773-0.15625 22.344-0.52734 28.066 0.85156 0.26562 0.99609 0.55078 2.0391 0.86328 3.1211 1.2227 4.2109 1.4648 9.9258 1.6914 15.457 0.10938 2.2422 0.20312 4.4531 0.33594 6.5508 0.28906 4.1523 0.45703 8.3047 0.60156 12.48 0.3125 8.1836 0.63672 16.645 1.9219 25.246 1.4297 9.4336 0.85156 19.414 0.22656 30.277-0.74219 12.984-1.5117 26.398 1.4141 39.898 5.2812 24.301 16.367 38.797 32.941 43.094 3.2266 0.83984 6.625 1.2617 10.117 1.2617 37.141 0 85.02-48.602 127.56-96.805 2.7969-3.1914 5.1953-5.8906 7.0938-7.9805 4.5859-5.0039 9.0234-10.402 13.512-15.863 10.512-12.805 21.383-26.039 34.535-33.938 6.8984-4.1172 11.566-2.9766 21.875-0.45703l5.8203 1.3789c20.242 4.5352 40.609 3.0234 60.277 1.5586l12.07-0.85156c44.051-3.0234 89.605-6.1562 125.61-38.449 26.195-23.508 42.758-55.477 49.246-94.98 4.8359-29.363 7.1406-59.652 9.3711-89.137 1.1523-15.312 2.3047-30.59 3.8047-45.707 1.0078-9.9961 2.2695-19.969 3.5625-29.977 4.3828-34.105 8.9102-69.395 1.9258-105.6zm-465.4 344.51c-6.3711-7.6445-15.07-14.762-23.914-19.703l0.5625-1.9688-5.4609-1.8242c-4.9219-1.6445-8.9141-3.8633-13.57-6.4453-9.1211-5.0625-19.309-10.691-36.023-10.379-12.613 0.34766-24.574 2.6875-36.254 4.9805-13.801 2.7109-26.809 5.3047-40.211 4.3789-38.16-2.5547-50.426-9.1094-54.348-12.781-11.23-10.535-12.648-39.059-13.5-56.184l-0.21484-4.4297c-3.6016-67.789-3.0117-122.39 1.8477-171.82 5.5078-55.945 13.246-101.17 57.445-131.77 11.219-7.7773 35.543-12.805 53.785-13.754 57.371-3.0117 116.86-0.78125 172.85 1.7539 11.746 0.52734 23.867 2.1953 35.855 3.8281 11.398 1.5586 23.184 3.168 35.102 3.8398 18.551 1.0664 33.109-2.4492 48.648-6.168 6.1328-1.4648 12.348-2.9648 18.973-4.1406 77.629-13.754 174.5-16.477 195.36 48.707 10.621 33.145 14.496 86.125 8.8789 120.86-1.9688 6.625-4.043 26.605-8.4961 72.457-2.6992 27.828-6.2891 64.848-8.8203 80.82h-0.96094l-1.7773 9.8867c-8.7344 48.938-31.477 72.301-76.031 78.133-4.8594 0.63672-9.9102 1.3672-15.793 2.2305-21.816 3.1797-46.586 6.7812-66.324 4.1289-4.4883-0.60156-8.5664-1.3789-12.469-2.1367-12.492-2.3867-25.414-4.8594-42.984 0.10938-38.004 10.738-70.645 32.363-91.895 60.949l-6.3242 8.5938c-9.0234 12.254-17.531 23.82-27.59 35.004-2.5195 2.8086-5.4102 6.2539-8.6758 10.129-5.0273 5.9648-11.258 13.355-17.688 19.992-0.44531-13.105-2.9766-27.18-5.125-39.156l-0.22656-1.2344c-0.89844-5.1016-1.7031-9.5156-2.0391-12.73-0.34766-3.3594-0.61328-7.3438-0.89844-11.711l-0.10938-1.5352c-1.2109-18.145-2.6875-40.355-9.6719-55.441l1.3555-1.5469z"/>
 <path d="m553.68 514.38c0 3.2656-0.058594 6.5625-0.10938 9.8281-0.43359 26.316-0.91016 56.137 30.371 65.207 6.1094 1.7656 11.914 2.6523 17.328 2.6523 7.4531 0 14.16-1.668 19.824-4.9805 8.5547-4.9922 14.508-13.668 17.207-25.105 4.1406-17.52 0.42188-37.801-3.168-57.422-2.2578-12.277-4.3672-23.879-4.4297-33.961-0.035156-6.6836 0.63672-14.473 1.3438-22.715 2.1133-24.18 4.4883-51.574-9.3125-69.504l-1.8438-1.5781c-3.0859-1.7031-6.4688-3.4336-11.062-4.0547l-0.22656 1.4414c-12.098 0.011719-45.047 0.42188-48.742 2.8555-20.664 13.621-15.828 67.152-9.1328 120.83 0.89844 7.1016 1.6289 12.992 1.9531 16.508z"/>
 <path d="m622.45 603.05c-14.16-7.1641-42.457-2.3398-51.926 12.445-9.9961 15.613-11.496 41.629-3.3242 58.008 6.5508 13.129 13.188 16.5 21.457 16.5 3.8398 0 8.0391-0.73047 12.742-1.5469l6.6719-1.1055c28.043-4.3555 31.621-6.7695 31.621-38.398 0-12.996 0-37.188-17.242-45.902z"/>
</svg>
