<?xml version="1.0" encoding="UTF-8"?>
<svg width="1200pt" height="1200pt" version="1.1" viewBox="0 0 1200 1200" xmlns="http://www.w3.org/2000/svg">
 <path transform="scale(12)" d="m72.055 45.89c-1.028-5.2191-2.6081-10.458-5.2139-15.12-3.084-5.5169-7.0758-8.5879-13.228-9.9821-0.53288-0.12109-1.0879-0.22689-1.624-0.11686s-1.0521 0.48893-1.1611 1.0241c-0.091146 0.44596 0.1071 0.89388 0.30404 1.304 0.96094 1.9961 2.252 3.5671 3.3258 5.4479 3.6439 6.3831 0.30306 21.462-8.9141 13.571-1.167-0.9821-1.5511-3.054-1.999-4.4271-0.42415-1.2969-1.1579-3.943-2.1849-4.873-1.2259-1.11-2.5169 0.13802-3.5999 1.0459-2.3691 1.986-4.0361 4.7939-5.7139 7.262-1.3789 2.029-2.7428 4.168-3.6071 6.4759-4.779 12.776 5.4671 30.812 18.02 31.438 19.055 0.9502 29.142-15.044 25.596-33.05zm-9.9102 11.479c-0.61491 1.847-0.3431 2.861-1.4368 4.709-0.94987 1.6051-1.9531 3.014-3.277 4.238-3.0221 2.793-7.2201 4.4779-10.264 0.62012-3.4349-4.3519 1.32-8.9521 5.154-10.901 2.056-1.0449 4.291-1.7331 6.2191-3.014 0.81413-0.54102 1.6921-1.1211 2.3851-1.8001 0.35286-0.30013 0.66309-0.64095 0.93099-1.0251 0.28906-1.0599 0.75195-1.2181 1.389-0.47494 0.14486-0.001953-1.069 7.361-1.1003 7.6481z" stroke="#000"/>
</svg>
