<?xml version="1.0" encoding="UTF-8"?>
<svg width="1200pt" height="1200pt" version="1.1" viewBox="0 0 1200 1200" xmlns="http://www.w3.org/2000/svg">
 <path d="m891.43 403.05c-11.281-18.191-29.543-34.32-47.219-49.934-8.0039-7.0781-15.574-13.766-22.188-20.363-4.5586-4.5586-9.0703-9.4688-13.633-14.426-9.4453-10.273-19.223-20.891-30.133-29.27-20.688-15.875-47.785-13.297-71.629-11.039-7.9062 0.74219-15.371 1.4648-22.477 1.5469-73.43 0.99609-149.09 3.1211-213.42 5.0742-12.086 0.38281-24.18 0.085938-35.867-0.17969-22.777-0.52734-46.367-1.0781-70.969 3.1797-16.598 2.8672-35.219 7.6211-47.594 21.086-10.906 11.867-14.027 27.254-14.723 38.074-1.4883 23.605 0.83984 47.641 3.1094 70.895 1.7266 17.844 3.5156 36.312 3.5156 54.215 0 76.547 1.043 147.28 3.2031 216.21 1.1641 37.309 2.6758 74.328 4.4883 110.02 1.3906 27.672 5.1953 62.27 22.379 84.371 18.625 23.688 50.844 32.914 74.605 36.492 24.109 3.625 49.68 4.6328 75.504 4.6328 16.559 0 33.227-0.42188 49.668-0.82812 56.688-1.4023 113.39-0.75781 170.07-0.26562 51.359 0.44531 105.53 4.8359 153.24-18.012 33.73-16.152 35.438-35.113 35.438-64.703l0.003906-364.2c0-5.2422 0.45703-11.148 0.9375-17.316 1.4492-18.793 3.082-40.094-6.3125-55.262zm-57.156 404.93c-0.81641 15.793-2.6172 33.434-13.738 43.008-1.9219 1.6562-4.0078 3.0117-6.3828 4.1875-10.691 5.2422-24.781 4.9688-38.426 4.6562-7.0664-0.15625-13.691-0.28906-20.016 0.27734-11.629 1.0312-23.305 2.293-35.027 3.5625-15.973 1.7266-32.484 3.5156-48.695 4.6797-5.7344 0.38281-11.305-0.19141-17.27-0.82812-3-0.32422-6-0.63672-8.7617-0.80469l-7.9453-0.82812c-10.465-1.1172-21.18-2.2578-31.836-2.2578-4.2109 0-8.3984-0.89844-12.574-0.46875l-0.046875-1.1289h-2.6055c-11.473 0-24.469 1.1758-36.422 2.4844l-10.922 0.5625c-5.6992 0.011718-11.438 0.25391-17.113 0.37109-8.7461 0.19141-17.461 0.81641-26.148 1.3086-32.785 1.8711-63.781 3.6719-93.215-10.586-3.9492-1.9062-8.0391-3.8516-11.293-6.4688-6.8281-5.4961-10.836-14.398-14.16-23.23-14.531-38.797-19.871-72.805-15.898-101.07 2.5312-17.977 0.875-35.566-0.70703-52.586-1.2852-13.715-2.6172-27.898-1.6797-41.977 1.1992-17.902 0.82812-30.492 0.43359-43.824-0.20312-7.0781-0.42188-14.473-0.43359-23.543-0.78125-12.539-0.15625-25.008 0.45703-37.055 0.76953-15.098 1.5586-30.695-0.45703-45.73-0.44531-7.7148-1.0195-15.434-1.5859-23.148-1.6445-22.332-3.3359-45.434-2.0039-68.305l-0.070313-6.3477c-0.20312-11.93-0.43359-25.441 6-33.168 2.8672-3.6953 6.7812-6.2539 12.277-8.0156 54.504-2.8906 109.21-2.9766 155.51-2.6875 4.4531 0.070313 13.02-0.37109 24.059-0.875 26.027-1.1992 104.44-4.8125 114.73 3.0117 0.17969 3.625-1.1172 14.438-1.9062 21.098-0.85156 7.1289-1.5977 13.273-1.5977 16.598v46.391c0 5.5781-0.53906 11.746-1.0938 18.109-2.0898 24.348-4.6914 54.648 21.719 68.004 16.738 8.4844 35.184 6.3594 52.992 4.3438 7.5-0.85156 14.594-1.668 21.336-1.668h74.449c5.0586 31.789-2.2734 261.7-3.9297 293.95zm-13.73-334.85c-32.82 2.7734-66.035 2.5664-98.723-0.61328-3.3359-0.32422-6.0703-0.66016-8.2422-1.7266-3.3594-1.6797-5.9766-5.832-6.8047-10.848-3.5742-21.613-1.2617-47.23 0.96094-72 1.1641-12.793 2.2422-24.875 2.5664-36.406 0.25391-8.832 2.0039-13.945 5.2305-15.203 0.76953-0.30078 1.6094-0.44531 2.5078-0.44531 8.6172 0 22.211 13.129 29.844 20.496 2.7617 2.6641 5.1836 4.9922 7.4414 6.8516 6.2539 4.4648 12.035 8.9141 17.832 13.379 5.9023 4.5352 11.809 9.0859 17.809 13.355 10.477 8.7227 28.234 26.461 28.895 27.07 4.5117 3.6016 8.5664 6.7578 12.625 9.9102 4.043 3.1445 8.0898 6.2891 12.012 9.3594 4.3672 4.5352 9.0586 24.359 6.875 29.051-2.9141 6.2539-11.016 6.9727-23.039 7.3555l-0.94922 0.035156c-2.3633 0.10156-4.6797 0.1875-6.8398 0.37891z"/>
</svg>
