<?xml version="1.0" encoding="UTF-8"?>
<svg width="1200pt" height="1200pt" version="1.1" viewBox="0 0 1200 1200" xmlns="http://www.w3.org/2000/svg">
 <path d="m980.77 396.74c-0.61328-59.113-45.863-118.5-106.32-140.44l0.3125-1.5977-5.3047-1.5078c-39.742-11.363-83.508-6.0586-125.83-0.9375-26.281 3.1914-51.098 6.1797-74.566 5.3516-39.781-1.4414-69.781-1.6914-100.25-0.81641-25.129 0.76953-50.723-0.58984-76.645-1.9453-25.355-1.3203-51.59-2.6875-77.82-1.9805-32.867 0.91016-80.051 4.668-110.17 26.762-39.301 28.848-56.699 85.777-69.406 127.39-12.73 41.699-15.973 87.023-18.203 129.88-1.3438 25.559-1.2734 50.844 0.22656 75.156 0.42188 6.8867 0.26562 14.555 0.085937 23.52-0.39453 17.723-0.80469 36.035 4.2344 52.141 11.762 37.656 45.504 70.02 88.055 84.48 11.734 3.9844 26.449 7.3906 40.379 9.3594 15.121 2.1484 28.859-0.39453 42.215-2.8672l1.5469-0.28906c8.4727-1.5703 16.008-2.9531 24.793-2.9648 1.8594-0.085938 4.8828-0.046875 8.2305-0.12109 6.2773-0.15625 22.344-0.52734 28.066 0.85156 0.26562 0.99609 0.55078 2.0391 0.86328 3.1211 1.2227 4.2109 1.4648 9.9258 1.6914 15.457 0.10938 2.2422 0.20312 4.4531 0.33594 6.5508 0.28906 4.1523 0.45703 8.3047 0.60156 12.48 0.3125 8.1836 0.63672 16.645 1.9219 25.246 1.4297 9.4336 0.85156 19.414 0.22656 30.277-0.74219 12.984-1.5117 26.398 1.4141 39.898 5.2812 24.301 16.367 38.797 32.941 43.094 3.2266 0.83984 6.625 1.2617 10.117 1.2617 37.141 0 85.02-48.602 127.56-96.805 2.7969-3.1914 5.1953-5.8906 7.0938-7.9805 4.5859-5.0039 9.0234-10.402 13.512-15.863 10.512-12.805 21.383-26.039 34.535-33.938 6.8984-4.1172 11.566-2.9766 21.875-0.45703l5.8203 1.3789c20.242 4.5352 40.609 3.0234 60.277 1.5586l12.07-0.85156c44.051-3.0234 89.605-6.1562 125.61-38.449 26.195-23.508 42.758-55.477 49.246-94.98 4.8359-29.363 7.1406-59.652 9.3711-89.137 1.1523-15.312 2.3047-30.59 3.8047-45.707 1.0078-9.9961 2.2695-19.969 3.5625-29.977 4.3828-34.105 8.9102-69.395 1.9258-105.6zm-372.7 290.61-6.6719 1.1055c-4.7148 0.81641-8.9023 1.5469-12.742 1.5469-8.2695 0-14.902-3.3711-21.457-16.5-8.1719-16.379-6.6719-42.395 3.3242-58.008 9.4688-14.785 37.766-19.609 51.926-12.445 17.242 8.7109 17.242 32.902 17.242 45.898 0 31.633-3.5742 34.047-31.621 38.402zm30.23-125.36c-2.6992 11.438-8.6523 20.113-17.207 25.105-5.6758 3.3125-12.371 4.9805-19.824 4.9805-5.4102 0-11.23-0.88672-17.328-2.6523-31.285-9.0586-30.805-38.891-30.371-65.207 0.046875-3.2656 0.10938-6.5625 0.10938-9.8281-0.3125-3.5156-1.0547-9.4062-1.9453-16.512-6.707-53.676-11.531-107.21 9.1328-120.83 3.707-2.4492 36.66-2.8438 48.742-2.8555l0.22656-1.4414c4.5977 0.625 7.9805 2.3516 11.062 4.0547l1.8477 1.5859c13.801 17.93 11.426 45.324 9.3125 69.504-0.71875 8.2422-1.3789 16.031-1.3438 22.715 0.058594 10.078 2.1836 21.684 4.4297 33.961 3.5859 19.617 7.2969 39.898 3.1562 57.418z"/>
</svg>
